<?xml version="1.0" standalone="no"?>
<!DOCTYPE svg PUBLIC "-//W3C//DTD SVG 20010904//EN"
 "http://www.w3.org/TR/2001/REC-SVG-20010904/DTD/svg10.dtd">
<svg version="1.0" xmlns="http://www.w3.org/2000/svg"
 width="260.000000pt" height="260.000000pt" viewBox="0 0 260.000000 260.000000"
 preserveAspectRatio="xMidYMid meet">
<metadata>
Created by potrace 1.11, written by Peter Selinger 2001-2013
</metadata>
<g transform="translate(0.000000,260.000000) scale(0.100000,-0.100000)"
fill="#000000" stroke="none">
<path d="M987 2354 c-1 -1 -26 -5 -55 -8 -293 -35 -615 -220 -764 -439 -170
-251 -180 -495 -32 -791 80 -160 143 -233 242 -281 l60 -29 -21 -28 c-28 -38
-31 -111 -6 -159 25 -51 92 -105 158 -129 58 -22 169 -28 225 -12 25 7 39 2
95 -36 127 -85 259 -141 439 -186 238 -59 504 -75 674 -41 208 43 426 176 513
315 52 83 69 156 69 300 1 153 -14 209 -79 307 -62 94 -245 265 -387 362 l-83
57 -1 109 c-1 61 -2 129 -3 153 l-1 42 -54 0 c-50 0 -57 -3 -71 -28 l-17 -28
-43 21 c-23 12 -52 25 -64 28 -14 3 -30 25 -47 63 -34 77 -73 132 -147 207
-159 162 -291 222 -505 230 -51 2 -93 3 -95 1z m323 -352 c113 -33 260 -107
260 -130 0 -4 -26 -15 -57 -25 -31 -10 -73 -31 -93 -47 -21 -16 -39 -28 -41
-25 -2 2 -24 6 -48 9 -50 5 -56 10 -56 39 l0 22 -320 1 c-176 0 -324 -3 -330
-7 -10 -8 -12 -110 -2 -126 4 -5 38 -9 77 -8 38 1 69 1 67 -1 -1 -1 -36 -25
-79 -53 -42 -28 -99 -76 -127 -107 -95 -104 -126 -178 -137 -329 -4 -44 -10
-84 -14 -89 -14 -14 -57 2 -85 32 -29 30 -49 70 -63 123 -36 136 134 422 337
569 208 151 499 213 711 152z m-62 -561 c15 -1 22 -7 22 -20 0 -11 15 -49 34
-85 l35 -66 -57 -39 c-31 -21 -83 -53 -114 -71 l-58 -32 0 160 0 159 58 -3
c31 -1 67 -3 80 -3z m-438 -210 c0 -163 -2 -180 -17 -183 -35 -8 -53 5 -92 66
-44 69 -71 128 -71 159 0 26 64 87 121 115 24 12 47 22 52 22 4 0 7 -81 7
-179z m977 -143 c55 -20 108 -71 119 -114 31 -123 -79 -239 -226 -239 -94 0
-166 42 -228 132 l-22 31 64 51 c35 27 81 69 103 92 80 88 79 88 190 47z m415
-87 c57 -60 95 -109 115 -152 29 -63 60 -157 52 -162 -2 -2 -23 -18 -46 -35
-106 -82 -231 -112 -453 -107 -150 3 -268 22 -417 66 -74 22 -74 22 -54 42 19
20 20 20 55 -1 67 -39 164 -62 246 -58 82 5 115 13 175 44 135 69 224 218 226
378 1 41 4 74 9 74 4 0 46 -40 92 -89z m-942 -256 c0 -48 -2 -53 -17 -47 -75
34 -93 43 -93 50 0 9 79 50 98 51 8 1 12 -16 12 -54z m-586 -121 c4 -10 1 -14
-6 -12 -15 5 -23 28 -10 28 5 0 13 -7 16 -16z"/>
</g>
</svg>
